<mxfile host="65bd71144e">
    <diagram name="ページ1" id="TVkIrgXdovBEuatIL4PM">
        <mxGraphModel dx="882" dy="532" grid="1" gridSize="10" guides="1" tooltips="1" connect="1" arrows="1" fold="1" page="1" pageScale="1" pageWidth="827" pageHeight="1169" background="#FFFFFF" math="0" shadow="0">
            <root>
                <mxCell id="0"/>
                <mxCell id="1" parent="0"/>
                <mxCell id="sMbhtMzPxXBceduwT6mS-25" value="AWS Cloud" style="points=[[0,0],[0.25,0],[0.5,0],[0.75,0],[1,0],[1,0.25],[1,0.5],[1,0.75],[1,1],[0.75,1],[0.5,1],[0.25,1],[0,1],[0,0.75],[0,0.5],[0,0.25]];outlineConnect=0;gradientColor=none;html=1;whiteSpace=wrap;fontSize=12;fontStyle=0;container=1;pointerEvents=0;collapsible=0;recursiveResize=0;shape=mxgraph.aws4.group;grIcon=mxgraph.aws4.group_aws_cloud_alt;strokeColor=#232F3E;fillColor=none;verticalAlign=top;align=left;spacingLeft=30;fontColor=#232F3E;dashed=0;" parent="1" vertex="1">
                    <mxGeometry x="139" y="190" width="880" height="470" as="geometry"/>
                </mxCell>
                <mxCell id="sMbhtMzPxXBceduwT6mS-31" style="edgeStyle=orthogonalEdgeStyle;rounded=0;orthogonalLoop=1;jettySize=auto;html=1;entryX=1;entryY=0.5;entryDx=0;entryDy=0;entryPerimeter=0;" parent="sMbhtMzPxXBceduwT6mS-25" source="sMbhtMzPxXBceduwT6mS-12" target="sMbhtMzPxXBceduwT6mS-14" edge="1">
                    <mxGeometry relative="1" as="geometry"/>
                </mxCell>
                <mxCell id="sMbhtMzPxXBceduwT6mS-32" style="edgeStyle=orthogonalEdgeStyle;rounded=0;orthogonalLoop=1;jettySize=auto;html=1;entryX=1;entryY=0.5;entryDx=0;entryDy=0;entryPerimeter=0;" parent="sMbhtMzPxXBceduwT6mS-25" source="sMbhtMzPxXBceduwT6mS-14" target="sMbhtMzPxXBceduwT6mS-13" edge="1">
                    <mxGeometry relative="1" as="geometry"/>
                </mxCell>
                <mxCell id="sMbhtMzPxXBceduwT6mS-40" value="" style="group" parent="sMbhtMzPxXBceduwT6mS-25" vertex="1" connectable="0">
                    <mxGeometry x="759" y="210" width="80" height="108" as="geometry"/>
                </mxCell>
                <mxCell id="sMbhtMzPxXBceduwT6mS-12" value="" style="sketch=0;points=[[0,0,0],[0.25,0,0],[0.5,0,0],[0.75,0,0],[1,0,0],[0,1,0],[0.25,1,0],[0.5,1,0],[0.75,1,0],[1,1,0],[0,0.25,0],[0,0.5,0],[0,0.75,0],[1,0.25,0],[1,0.5,0],[1,0.75,0]];outlineConnect=0;fontColor=#232F3E;fillColor=#C925D1;strokeColor=#ffffff;dashed=0;verticalLabelPosition=bottom;verticalAlign=top;align=center;html=1;fontSize=12;fontStyle=0;aspect=fixed;shape=mxgraph.aws4.resourceIcon;resIcon=mxgraph.aws4.codebuild;" parent="sMbhtMzPxXBceduwT6mS-40" vertex="1">
                    <mxGeometry x="1" width="78" height="78" as="geometry"/>
                </mxCell>
                <mxCell id="sMbhtMzPxXBceduwT6mS-39" value="CodeBuild" style="text;html=1;align=center;verticalAlign=middle;resizable=0;points=[];autosize=1;strokeColor=none;fillColor=none;" parent="sMbhtMzPxXBceduwT6mS-40" vertex="1">
                    <mxGeometry y="78" width="80" height="30" as="geometry"/>
                </mxCell>
                <mxCell id="sMbhtMzPxXBceduwT6mS-42" value="" style="group" parent="sMbhtMzPxXBceduwT6mS-25" vertex="1" connectable="0">
                    <mxGeometry x="600" y="210" width="78" height="108" as="geometry"/>
                </mxCell>
                <mxCell id="sMbhtMzPxXBceduwT6mS-14" value="" style="sketch=0;points=[[0,0,0],[0.25,0,0],[0.5,0,0],[0.75,0,0],[1,0,0],[0,1,0],[0.25,1,0],[0.5,1,0],[0.75,1,0],[1,1,0],[0,0.25,0],[0,0.5,0],[0,0.75,0],[1,0.25,0],[1,0.5,0],[1,0.75,0]];outlineConnect=0;fontColor=#232F3E;fillColor=#7AA116;strokeColor=#ffffff;dashed=0;verticalLabelPosition=bottom;verticalAlign=top;align=center;html=1;fontSize=12;fontStyle=0;aspect=fixed;shape=mxgraph.aws4.resourceIcon;resIcon=mxgraph.aws4.s3;" parent="sMbhtMzPxXBceduwT6mS-42" vertex="1">
                    <mxGeometry width="78" height="78" as="geometry"/>
                </mxCell>
                <mxCell id="sMbhtMzPxXBceduwT6mS-41" value="S3" style="text;html=1;align=center;verticalAlign=middle;resizable=0;points=[];autosize=1;strokeColor=none;fillColor=none;" parent="sMbhtMzPxXBceduwT6mS-42" vertex="1">
                    <mxGeometry x="19" y="78" width="40" height="30" as="geometry"/>
                </mxCell>
                <mxCell id="sMbhtMzPxXBceduwT6mS-22" value="VPC" style="sketch=0;outlineConnect=0;html=1;whiteSpace=wrap;fontSize=12;fontStyle=0;shape=mxgraph.aws4.group;grIcon=mxgraph.aws4.group_vpc;verticalAlign=top;align=left;spacingLeft=30;dashed=0;fillColor=none;strokeColor=#4D9900;" parent="sMbhtMzPxXBceduwT6mS-25" vertex="1">
                    <mxGeometry x="61" y="85" width="340" height="300" as="geometry"/>
                </mxCell>
                <mxCell id="sMbhtMzPxXBceduwT6mS-44" value="" style="group" parent="sMbhtMzPxXBceduwT6mS-25" vertex="1" connectable="0">
                    <mxGeometry x="435" y="210" width="90" height="108" as="geometry"/>
                </mxCell>
                <mxCell id="sMbhtMzPxXBceduwT6mS-13" value="" style="sketch=0;points=[[0,0,0],[0.25,0,0],[0.5,0,0],[0.75,0,0],[1,0,0],[0,1,0],[0.25,1,0],[0.5,1,0],[0.75,1,0],[1,1,0],[0,0.25,0],[0,0.5,0],[0,0.75,0],[1,0.25,0],[1,0.5,0],[1,0.75,0]];outlineConnect=0;fontColor=#232F3E;fillColor=#C925D1;strokeColor=#ffffff;dashed=0;verticalLabelPosition=bottom;verticalAlign=top;align=center;html=1;fontSize=12;fontStyle=0;aspect=fixed;shape=mxgraph.aws4.resourceIcon;resIcon=mxgraph.aws4.codedeploy;" parent="sMbhtMzPxXBceduwT6mS-44" vertex="1">
                    <mxGeometry x="6" width="78" height="78" as="geometry"/>
                </mxCell>
                <mxCell id="sMbhtMzPxXBceduwT6mS-43" value="CodeDeploy" style="text;html=1;align=center;verticalAlign=middle;resizable=0;points=[];autosize=1;strokeColor=none;fillColor=none;" parent="sMbhtMzPxXBceduwT6mS-44" vertex="1">
                    <mxGeometry y="78" width="90" height="30" as="geometry"/>
                </mxCell>
                <mxCell id="sMbhtMzPxXBceduwT6mS-47" value="" style="sketch=0;outlineConnect=0;fontColor=#232F3E;gradientColor=none;fillColor=#8C4FFF;strokeColor=none;dashed=0;verticalLabelPosition=bottom;verticalAlign=top;align=center;html=1;fontSize=12;fontStyle=0;aspect=fixed;pointerEvents=1;shape=mxgraph.aws4.internet_gateway;" parent="sMbhtMzPxXBceduwT6mS-25" vertex="1">
                    <mxGeometry x="35" y="223" width="50" height="50" as="geometry"/>
                </mxCell>
                <mxCell id="sMbhtMzPxXBceduwT6mS-55" value="Internet Gateway" style="text;html=1;align=center;verticalAlign=middle;resizable=0;points=[];autosize=1;strokeColor=none;fillColor=light-dark(#FFFFFF,#FFFFFF);fillStyle=auto;gradientColor=none;perimeterSpacing=0;fontColor=light-dark(#000000,#000000);expand=0;spacing=0;" parent="sMbhtMzPxXBceduwT6mS-25" vertex="1">
                    <mxGeometry x="5" y="278" width="110" height="20" as="geometry"/>
                </mxCell>
                <mxCell id="sMbhtMzPxXBceduwT6mS-23" value="Subnet" style="sketch=0;outlineConnect=0;gradientColor=none;html=1;whiteSpace=wrap;fontSize=12;fontStyle=0;shape=mxgraph.aws4.group;grIcon=mxgraph.aws4.group_subnet;strokeColor=#336600;fillColor=none;verticalAlign=top;align=left;spacingLeft=30;fontColor=#879196;dashed=0;" parent="1" vertex="1">
                    <mxGeometry x="239" y="338" width="250" height="192" as="geometry"/>
                </mxCell>
                <mxCell id="sMbhtMzPxXBceduwT6mS-30" style="edgeStyle=orthogonalEdgeStyle;rounded=0;orthogonalLoop=1;jettySize=auto;html=1;entryX=1;entryY=0.5;entryDx=0;entryDy=0;entryPerimeter=0;" parent="1" source="sMbhtMzPxXBceduwT6mS-28" target="sMbhtMzPxXBceduwT6mS-12" edge="1">
                    <mxGeometry relative="1" as="geometry"/>
                </mxCell>
                <mxCell id="sMbhtMzPxXBceduwT6mS-34" style="edgeStyle=orthogonalEdgeStyle;rounded=0;orthogonalLoop=1;jettySize=auto;html=1;" parent="1" source="sMbhtMzPxXBceduwT6mS-13" target="sMbhtMzPxXBceduwT6mS-6" edge="1">
                    <mxGeometry relative="1" as="geometry"/>
                </mxCell>
                <mxCell id="sMbhtMzPxXBceduwT6mS-38" value="" style="group" parent="1" vertex="1" connectable="0">
                    <mxGeometry x="1089" y="389" width="66.67000000000007" height="130" as="geometry"/>
                </mxCell>
                <mxCell id="sMbhtMzPxXBceduwT6mS-28" value="" style="shape=actor;whiteSpace=wrap;html=1;aspect=fixed;" parent="sMbhtMzPxXBceduwT6mS-38" vertex="1">
                    <mxGeometry width="66.67" height="100" as="geometry"/>
                </mxCell>
                <mxCell id="sMbhtMzPxXBceduwT6mS-37" value="開発者" style="text;html=1;align=center;verticalAlign=middle;resizable=0;points=[];autosize=1;strokeColor=none;fillColor=none;" parent="sMbhtMzPxXBceduwT6mS-38" vertex="1">
                    <mxGeometry x="3.3299999999999272" y="100" width="60" height="30" as="geometry"/>
                </mxCell>
                <mxCell id="sMbhtMzPxXBceduwT6mS-46" value="" style="group" parent="1" vertex="1" connectable="0">
                    <mxGeometry x="324.75" y="405" width="68" height="98" as="geometry"/>
                </mxCell>
                <mxCell id="sMbhtMzPxXBceduwT6mS-6" value="" style="sketch=0;points=[[0,0,0],[0.25,0,0],[0.5,0,0],[0.75,0,0],[1,0,0],[0,1,0],[0.25,1,0],[0.5,1,0],[0.75,1,0],[1,1,0],[0,0.25,0],[0,0.5,0],[0,0.75,0],[1,0.25,0],[1,0.5,0],[1,0.75,0]];outlineConnect=0;fontColor=#232F3E;fillColor=#ED7100;strokeColor=#ffffff;dashed=0;verticalLabelPosition=bottom;verticalAlign=top;align=center;html=1;fontSize=12;fontStyle=0;aspect=fixed;shape=mxgraph.aws4.resourceIcon;resIcon=mxgraph.aws4.ec2;" parent="sMbhtMzPxXBceduwT6mS-46" vertex="1">
                    <mxGeometry width="68" height="68" as="geometry"/>
                </mxCell>
                <mxCell id="sMbhtMzPxXBceduwT6mS-45" value="EC2" style="text;html=1;align=center;verticalAlign=middle;resizable=0;points=[];autosize=1;strokeColor=none;fillColor=none;" parent="sMbhtMzPxXBceduwT6mS-46" vertex="1">
                    <mxGeometry x="9" y="68" width="50" height="30" as="geometry"/>
                </mxCell>
                <mxCell id="sMbhtMzPxXBceduwT6mS-51" value="" style="group" parent="1" vertex="1" connectable="0">
                    <mxGeometry x="20" y="389" width="68.32999999999993" height="130" as="geometry"/>
                </mxCell>
                <mxCell id="sMbhtMzPxXBceduwT6mS-52" value="" style="shape=actor;whiteSpace=wrap;html=1;aspect=fixed;" parent="sMbhtMzPxXBceduwT6mS-51" vertex="1">
                    <mxGeometry width="66.67" height="100" as="geometry"/>
                </mxCell>
                <mxCell id="sMbhtMzPxXBceduwT6mS-53" value="ユーザー" style="text;html=1;align=center;verticalAlign=middle;resizable=0;points=[];autosize=1;strokeColor=none;fillColor=none;" parent="sMbhtMzPxXBceduwT6mS-51" vertex="1">
                    <mxGeometry x="-1.6700000000000728" y="100" width="70" height="30" as="geometry"/>
                </mxCell>
                <mxCell id="sMbhtMzPxXBceduwT6mS-54" value="" style="endArrow=classic;html=1;rounded=0;exitX=0.9;exitY=0.5;exitDx=0;exitDy=0;exitPerimeter=0;" parent="1" source="sMbhtMzPxXBceduwT6mS-52" target="sMbhtMzPxXBceduwT6mS-6" edge="1">
                    <mxGeometry width="50" height="50" relative="1" as="geometry">
                        <mxPoint x="510" y="360" as="sourcePoint"/>
                        <mxPoint x="560" y="310" as="targetPoint"/>
                    </mxGeometry>
                </mxCell>
                <mxCell id="sMbhtMzPxXBceduwT6mS-57" value="git push" style="text;html=1;align=center;verticalAlign=middle;resizable=0;points=[];autosize=1;strokeColor=none;fillColor=default;spacing=0;spacingLeft=-4;convertToSvg=0;spacingRight=-4;" parent="1" vertex="1">
                    <mxGeometry x="1010" y="430" width="50" height="20" as="geometry"/>
                </mxCell>
                <mxCell id="sMbhtMzPxXBceduwT6mS-58" value="Artifact" style="text;html=1;align=center;verticalAlign=middle;resizable=0;points=[];autosize=1;strokeColor=none;fillColor=default;spacing=0;spacingLeft=-4;convertToSvg=0;spacingRight=-4;" parent="1" vertex="1">
                    <mxGeometry x="841" y="430" width="40" height="20" as="geometry"/>
                </mxCell>
            </root>
        </mxGraphModel>
    </diagram>
</mxfile>